<svg xmlns="http://www.w3.org/2000/svg" viewBox="0 0 128 128">
  <rect width="128" height="128" rx="28" fill="#3e5219"/>
  <path fill="#ffffff" transform="translate(28.27 102) scale(0.0527778 -0.0527778)" d="M140 0V1440H716Q870 1440 965.0 1378.5Q1060 1317 1104.0 1224.0Q1148 1131 1148 1036Q1148 915 1093.5 835.0Q1039 755 944 728V778Q1079 750 1146.5 653.0Q1214 556 1214 436Q1214 307 1166.5 209.0Q1119 111 1022.0 55.5Q925 0 778 0ZM416 256H750Q805 256 848.0 279.5Q891 303 915.5 345.5Q940 388 940 446Q940 497 919.0 537.0Q898 577 855.5 600.5Q813 624 750 624H416ZM416 878H712Q758 878 794.0 894.0Q830 910 851.0 943.5Q872 977 872 1030Q872 1096 831.0 1141.0Q790 1186 712 1186H416Z"/>
</svg>
